<?xml version="1.0" standalone="no"?>
<!DOCTYPE svg PUBLIC "-//W3C//DTD SVG 20010904//EN"
 "http://www.w3.org/TR/2001/REC-SVG-20010904/DTD/svg10.dtd">
<svg version="1.0" xmlns="http://www.w3.org/2000/svg"
 width="700.000000pt" height="700.000000pt" viewBox="0 0 700.000000 700.000000"
 preserveAspectRatio="xMidYMid meet">
<metadata>
Created by potrace 1.14, written by Peter Selinger 2001-2017
</metadata>
<g transform="translate(0.000000,700.000000) scale(0.100000,-0.100000)"
fill="#000000" stroke="none">
<path d="M875 6994 c-11 -3 -57 -12 -103 -21 -46 -9 -85 -20 -88 -25 -3 -4
-12 -8 -20 -8 -24 0 -143 -58 -219 -107 -38 -25 -108 -84 -155 -132 -141 -142
-227 -302 -269 -502 -19 -92 -20 -147 -20 -2699 0 -2530 0 -2608 19 -2697 42
-199 129 -363 270 -504 151 -153 321 -243 535 -283 70 -13 404 -15 2675 -15
1427 0 2615 4 2640 9 25 4 59 11 75 13 93 16 232 75 333 140 227 148 374 369
432 647 19 93 20 147 19 2695 0 2822 3 2651 -55 2823 -66 196 -209 385 -378
496 -102 67 -145 89 -242 122 -167 56 -17 53 -2829 52 -1430 0 -2609 -2 -2620
-4z"/>
</g>
</svg>
